<svg width="65" height="56" viewBox="0 0 65 56" fill="none" xmlns="http://www.w3.org/2000/svg">
<path fill-rule="evenodd" clip-rule="evenodd" d="M0.0683594 20.2592L0.0785679 20.2711C0.254665 20.1755 0.407793 19.9619 0.552307 19.823C0.883446 19.5042 1.57794 18.872 1.85836 18.5749C2.11676 18.3013 2.44184 18.0287 2.67217 17.7936L3.13825 17.3285C3.18866 17.2791 3.2196 17.2633 3.26745 17.2178C3.31626 17.1713 3.28213 17.2005 3.31754 17.162C3.36061 17.1151 3.32041 17.1527 3.37081 17.1091C3.47609 17.0183 3.49683 16.9795 3.59636 16.8832L5.00162 15.5222C5.09478 15.4405 5.1455 15.3834 5.23195 15.2996L7.45869 13.1637C7.51196 13.1127 7.50239 13.1066 7.56205 13.055L8.26931 12.3791C8.49166 12.1549 8.72359 11.9012 8.97146 11.6981L9.42287 11.2452C9.51251 11.1551 9.58429 11.1118 9.67553 11.0191L10.2565 10.4555C10.2855 10.4279 10.3183 10.3875 10.3614 10.3487L10.8288 9.88488C10.9143 9.8018 10.9809 9.76011 11.068 9.6719L12.9269 7.86056C12.9748 7.81405 13.0086 7.7932 13.053 7.74605C13.3123 7.47116 13.631 7.20461 13.8668 6.96468L14.7906 6.05404C14.8736 5.97353 14.9422 5.91547 15.0146 5.83047C15.1613 5.89269 17.3699 8.22847 17.6755 8.54057C18.1199 8.99413 18.5477 9.43838 19.0048 9.89771L20.3083 11.2545C20.5119 11.4961 20.7578 11.7132 20.9808 11.9384L22.2917 13.2875C23.1871 14.1834 24.0265 15.1091 24.9197 16.0063C25.1421 16.2295 25.3641 16.4525 25.5836 16.6722C25.7083 16.7973 25.7916 16.9095 25.915 17.0324C26.0321 17.1482 26.1291 17.2521 26.2475 17.3653C26.4756 17.5831 26.7059 17.8183 26.8989 18.0437C27.0903 18.267 27.3385 18.4909 27.5596 18.7129C27.7896 18.9441 27.982 19.1629 28.21 19.3925C28.5514 19.7354 29.2529 20.4956 29.5368 20.7526C29.7748 20.9684 29.9851 21.202 30.187 21.4326C30.3452 21.6129 30.5306 21.7569 30.6939 21.9359C30.7532 22.001 30.7829 22.0395 30.8464 22.103C31.0378 22.2948 31.6321 22.9559 31.8433 23.1275C31.946 23.2109 32.3145 23.1695 32.4708 23.1695H37.8025C38.4958 23.1695 39.8538 23.2077 40.4638 23.1644L42.1587 21.0355C42.3042 20.8456 42.4417 20.6881 42.583 20.5017L43.4322 19.4355C43.5691 19.2575 43.7034 19.1096 43.8482 18.9207L51.0414 9.90926C51.1272 9.79892 51.1712 9.74503 51.2561 9.64527C51.7378 9.08041 52.2613 8.38789 52.7322 7.79545C52.8777 7.61261 53.0046 7.45448 53.1568 7.26202L53.7964 6.46493C53.8542 6.39276 53.9212 6.27376 54.0108 6.21634C54.2389 6.43799 55.1267 7.70114 55.3692 8.00811C55.8349 8.59831 56.25 9.2023 56.7074 9.78288C57.4003 10.6618 58.0397 11.5631 58.7169 12.4571L61.3925 16.0082C61.7508 16.4913 64.6736 20.3157 64.7125 20.4549L64.7575 20.4395C64.5664 20.0139 64.3338 19.5808 64.123 19.1571L55.8104 2.55005C55.5032 1.93162 54.7758 0.537274 54.548 0L19.446 4.32065L18.2395 3.22653C18.1853 3.17553 18.133 3.14506 18.0794 3.09277L16.7456 1.87356C16.5082 1.68175 16.2431 1.4014 16.0106 1.19997L15.719 0.932772C15.6571 0.881771 15.6178 0.852261 15.5588 0.799336L14.9753 0.265911C14.9068 0.193739 14.7559 0.0410574 14.671 0.0144342L13.2932 1.90692C13.1429 2.11157 12.9783 2.33065 12.836 2.54075L11.922 3.80839C11.6072 4.22666 11.3127 4.65295 11.009 5.07828C10.3936 5.93985 9.78782 6.76163 9.17914 7.61261C8.87033 8.04436 8.54972 8.45493 8.26357 8.87865C7.72251 9.67959 7.01302 10.5723 6.44549 11.3982C5.93028 12.1475 5.15539 13.1919 4.61689 13.9345C3.40622 15.6037 2.13176 17.3365 0.955543 19.0012C0.828575 19.1808 0.0941997 20.1572 0.0683594 20.2592Z" fill="#17170A"/>
<path fill-rule="evenodd" clip-rule="evenodd" d="M59.7855 38.1618C59.6634 37.8513 58.9593 35.928 58.8799 35.8154L56.1417 35.8202L56.1354 35.972L56.9967 35.9797C57.0235 36.1975 57.0025 41.3453 57.0028 41.8342C57.0031 42.1726 57.0251 42.4302 56.8251 42.6361C56.5581 42.911 56.2936 42.8205 56.1347 42.901L56.1328 43.0335C56.4228 43.039 57.9353 43.0839 58.0794 43.0078L58.0769 42.8882C57.3795 42.8167 57.1741 42.6813 57.1747 41.941L57.1731 36.4271C57.3052 36.6558 58.3608 39.527 58.4907 39.865C58.7105 40.4379 58.9232 41.0069 59.1424 41.584C59.3574 42.1498 59.5996 42.7416 59.7891 43.3039L59.9521 43.2956C60.1623 42.7496 60.3528 42.1232 60.5362 41.5667C60.7257 40.9925 60.9238 40.427 61.1136 39.8532L62.2662 36.447L62.2975 42.8815C62.1137 42.8863 61.5443 42.8532 61.41 42.9007L61.4071 43.0078C61.5038 43.0617 64.6489 43.0489 64.9967 43.0322L64.9795 42.884H64.1095V35.9761L64.9842 35.972L64.9817 35.8154H62.3205C62.2299 35.9643 61.6218 37.8295 61.5063 38.1676C61.402 38.4729 60.7761 40.4321 60.6963 40.521C60.6204 40.4251 59.9029 38.4601 59.7855 38.1618Z" fill="#17180A"/>
<path fill-rule="evenodd" clip-rule="evenodd" d="M4.96307 35.9681C5.19212 35.9568 6.54634 35.9408 6.66151 35.9851C6.76391 36.0354 7.09473 36.9499 7.16236 37.1141C7.32315 37.5048 7.47532 37.8942 7.64344 38.2846C7.75797 38.5511 7.64918 38.6759 7.55986 38.9226C7.46032 39.1975 6.95724 40.663 6.87142 40.7083L5.90703 38.3497C5.78039 38.0437 4.95381 36.1182 4.96307 35.9681ZM10.6904 40.6335L10.6451 40.7204C10.5688 40.69 10.5829 40.7063 10.5427 40.613C10.505 40.3548 8.68471 36.2128 8.67897 35.9693C8.87644 35.9549 9.24235 36.0104 9.38814 35.9434C9.38495 35.7823 9.41494 35.8205 9.02031 35.8221C8.03041 35.826 2.31364 35.7817 2.08203 35.8398C2.09511 35.9825 2.08299 35.9697 2.25334 35.9687C2.96315 35.9632 2.9405 35.8798 3.07194 36.2118L3.35905 36.9105C3.48794 37.2264 3.61267 37.5254 3.73677 37.8371C3.98528 38.4591 4.24081 39.0663 4.49443 39.6892L5.83239 42.9584C5.86524 43.0379 5.89236 43.1079 5.92522 43.1874C5.96701 43.2891 5.98073 43.3122 6.1179 43.2881C6.19989 43.1691 7.2284 40.265 7.37866 39.8618C7.44788 39.6757 7.72447 38.843 7.80008 38.7452C7.94363 38.8533 9.52595 43.0883 9.70843 43.2946C9.89761 43.3045 9.87017 43.2217 9.99331 42.8952C10.683 41.0685 11.3549 39.1564 12.0325 37.3143C12.169 36.9428 12.2561 36.6247 12.4816 36.3783C12.8533 35.9725 13.2827 36.0175 13.4218 35.944L13.4157 35.8359C13.2476 35.7977 11.6063 35.8045 11.4729 35.8404C11.4962 36.1191 11.708 35.8516 11.9798 36.2176C12.1345 36.4261 12.1345 36.6227 12.0366 36.8902C11.8803 37.3172 11.7355 37.7085 11.5782 38.138C11.4767 38.4151 10.675 40.5344 10.6904 40.6335Z" fill="#EFA35A"/>
<path fill-rule="evenodd" clip-rule="evenodd" d="M37.3831 42.8724L37.3837 35.9805C37.6648 35.943 38.4566 35.9632 38.7006 36.0475C39.0311 36.1621 39.3077 36.4347 39.4493 36.7109C39.6851 37.1696 39.5888 38.7782 39.5888 39.4072C39.5888 39.8784 39.5888 40.3496 39.5888 40.8208C39.5888 41.2824 39.6395 41.7135 39.4608 42.1154C39.3351 42.398 39.0407 42.6809 38.7316 42.796C38.4655 42.8951 37.6877 42.9214 37.3831 42.8724ZM37.2711 35.8153C36.9441 35.8156 34.7984 35.7868 34.6705 35.8326L34.6673 35.9398C34.8274 36.0398 35.334 35.9536 35.5676 35.9799L35.5672 42.872C35.343 42.907 34.8364 42.8409 34.6692 42.9009L34.666 43.0081C34.7866 43.0751 36.9738 43.0334 37.2976 43.0344C38.1388 43.0369 38.9207 43.0956 39.6471 42.7556C39.8041 42.6822 39.9438 42.6071 40.0775 42.5218C40.186 42.4525 40.3917 42.303 40.4558 42.2353L40.7717 41.887C41.2783 41.2397 41.5842 40.3092 41.5753 39.4072C41.5657 38.4128 41.1105 37.1744 40.4201 36.5883C39.4442 35.7605 38.5478 35.8131 37.2711 35.8153Z" fill="#17180A"/>
<path fill-rule="evenodd" clip-rule="evenodd" d="M48.9195 35.8473C49.6366 35.7507 50.2201 36.2864 50.3535 36.8426C50.4674 37.3183 50.4023 38.6773 50.4023 39.247C50.4023 39.7394 50.4259 41.3547 50.3953 41.7181C50.2584 43.3399 48.1223 43.4352 47.7675 42.0052C47.667 41.5998 47.7302 40.1105 47.7302 39.5937C47.7302 38.7803 47.7037 37.9213 47.7315 37.1133C47.7375 36.9407 47.7803 36.7634 47.8422 36.619C47.9436 36.3836 48.2141 36.1064 48.4375 35.9897C48.5864 35.9117 48.7255 35.8732 48.9195 35.8473ZM52.4245 39.5937C52.466 39.1463 52.3486 38.4759 52.2146 38.065C51.9789 37.3433 51.6822 36.8711 51.1721 36.4201C49.9343 35.3254 47.7462 35.4742 46.6896 36.6604C46.6398 36.7162 46.6191 36.7261 46.5747 36.7842C46.5403 36.8301 46.5291 36.8484 46.4841 36.9061C45.4052 38.2844 45.4534 40.5589 46.5042 41.9674C47.6437 43.4945 50.1841 43.5779 51.4413 42.1842C51.5798 42.0312 51.7106 41.866 51.8264 41.6655C52.2586 40.9188 52.3435 40.463 52.4245 39.5937Z" fill="#17180A"/>
<path fill-rule="evenodd" clip-rule="evenodd" d="M15.2544 15.6784C15.1855 15.8445 15.2324 17.4342 15.2324 17.7486C15.2324 18.442 15.2123 19.1663 15.2324 19.8556L19.7388 19.8588L19.735 15.1064L19.5901 15.1212C19.4227 15.1087 17.6907 15.3473 17.3944 15.3926C17.0358 15.4474 16.6692 15.4859 16.3123 15.5318C16.0092 15.5709 15.5294 15.6075 15.2544 15.6784Z" fill="#17170A"/>
<path fill-rule="evenodd" clip-rule="evenodd" d="M15.2416 24.6818L19.742 25.1126L19.7372 20.5244H15.2305L15.2416 24.6818Z" fill="#17180A"/>
<path fill-rule="evenodd" clip-rule="evenodd" d="M9.71919 24.1508L14.3992 24.6111L14.409 20.5166L9.70898 20.5243L9.71919 24.1508Z" fill="#17180A"/>
<path fill-rule="evenodd" clip-rule="evenodd" d="M9.70102 19.8735L14.4234 19.8649L14.4142 15.7822L9.69336 16.4051L9.70102 19.8735Z" fill="#17180A"/>
<path fill-rule="evenodd" clip-rule="evenodd" d="M28.6007 35.859C28.6007 36.0017 28.6208 35.9693 28.7682 35.985C29.5584 36.0694 29.4723 36.691 29.4723 37.2726C29.4723 37.9808 29.5169 38.8478 29.471 39.5358C29.3756 39.4932 28.6942 38.3445 28.5832 38.1662C28.2973 37.7062 28.0172 37.2568 27.7269 36.7869C27.0165 35.6354 27.2943 35.8198 26.4222 35.8198C26.0894 35.8198 24.3744 35.7817 24.2168 35.8481C24.2286 35.9783 24.2209 35.9667 24.3766 35.968C24.5215 35.9693 25.029 35.9356 25.0775 35.9924C25.126 36.0492 25.096 41.1291 25.0944 41.914C25.0919 43.2009 24.197 42.6415 24.2225 43.0071C24.3358 43.0568 25.9634 43.0556 26.0827 43.0155C26.1133 42.9446 26.1076 43.0029 26.0977 42.9003C25.735 42.7463 25.2386 42.9898 25.2434 41.8867L25.2428 36.2933C25.3509 36.3331 25.2849 36.2744 25.3614 36.3946L29.2608 42.6867C29.4037 42.9221 29.4385 43.0472 29.5909 43.0235C29.6069 42.9917 29.6008 43.0183 29.6126 42.9529L29.6168 42.7672C29.5935 40.8779 29.6158 38.8776 29.6133 36.9787C29.613 36.6641 29.6385 36.3799 29.8277 36.189C29.9227 36.0931 30.0104 36.0485 30.1531 36.0113C30.4836 35.9247 30.4753 36.0546 30.4906 35.8429C30.3936 35.8073 28.7057 35.7769 28.6007 35.859Z" fill="#EFA35A"/>
<path fill-rule="evenodd" clip-rule="evenodd" d="M20.1882 35.9657C20.3139 35.9654 20.4926 35.9856 20.5825 35.9442C20.579 35.7825 20.5643 35.8181 20.3755 35.8213C19.3566 35.8396 17.9197 35.7771 16.9907 35.8412C17.0054 36.0048 17.0309 35.9715 17.2163 35.9673C17.9634 35.9493 17.8782 35.9051 17.8773 36.2332C17.8709 38.4416 17.8958 40.6802 17.8741 42.8813L17.5356 42.8851C17.3541 42.8861 16.956 42.8428 16.9882 42.973C17.0102 43.0616 17.1633 43.033 17.2702 43.033C18.2001 43.0324 19.7875 43.0712 20.5634 43.0157C20.5953 42.9474 20.5911 43.0109 20.579 42.9053C20.3841 42.8399 19.9365 42.9159 19.6832 42.8755L19.6826 36.5001C19.6826 36.4035 19.644 36.0071 19.7263 35.983C19.7314 35.9817 19.7403 35.9776 19.7467 35.9759L19.8159 35.9644C19.8466 35.9618 19.9151 35.9641 19.949 35.9644C20.0287 35.9654 20.1085 35.9657 20.1882 35.9657Z" fill="#EFA359"/>
<path fill-rule="evenodd" clip-rule="evenodd" d="M53.5273 23.4606L53.5315 20.2588L49.6621 20.2639V24.028L53.5273 23.4606Z" fill="#17170A"/>
<path fill-rule="evenodd" clip-rule="evenodd" d="M49.6611 19.6347L53.5337 19.6447C53.5203 19.1417 53.5898 16.7084 53.5075 16.4521L49.6602 15.9033L49.6611 19.6347Z" fill="#17170A"/>
<path fill-rule="evenodd" clip-rule="evenodd" d="M57.7717 22.848L57.7764 20.2578L54.1719 20.2626L54.1783 23.3711L57.7717 22.848Z" fill="#17170A"/>
<path fill-rule="evenodd" clip-rule="evenodd" d="M54.1709 19.6345L57.7783 19.6444C57.7672 19.2326 57.8239 17.2637 57.7595 17.0568L54.1699 16.5439L54.1709 19.6345Z" fill="#17170A"/>
<path fill-rule="evenodd" clip-rule="evenodd" d="M13.9653 55.0954C13.9149 55.2211 13.8926 55.1185 13.8919 55.1175C13.8205 54.9199 13.3448 53.6966 13.2647 53.6084L12.9814 53.6074C12.9508 53.7479 12.9515 55.4004 12.9837 55.5336L13.177 55.5262L13.1789 53.9699C13.3097 54.1148 13.7397 55.4033 13.8677 55.5377C14.0074 55.5342 13.98 55.5281 14.0269 55.4024L14.2834 54.7801C14.3947 54.5023 14.5076 54.2361 14.6113 53.9654C14.6154 53.9715 14.6193 53.9801 14.6209 53.9853C14.6228 53.9904 14.6276 53.9994 14.6295 54.0058C14.6738 54.1549 14.6148 55.2712 14.6534 55.5348L14.8585 55.5313L14.8471 53.6055L14.5539 53.6122C14.4783 53.7075 13.9666 54.9912 13.9653 55.0954Z" fill="#19190E"/>
<path fill-rule="evenodd" clip-rule="evenodd" d="M40.9773 53.8024L41.7356 53.8018L41.7363 55.3363L40.7295 55.3398C40.8099 55.0874 40.9049 54.9831 40.9426 54.6566C40.9767 54.3621 40.9732 54.0981 40.9773 53.8024ZM40.4854 55.5345L41.9653 55.5416L41.9663 55.9999L42.1708 55.9849L42.1612 55.3446L41.9471 55.3283L41.9328 53.6045L40.7808 53.6077C40.7212 53.8678 40.7846 54.339 40.7237 54.6669C40.6947 54.8247 40.6574 54.9607 40.5952 55.097C40.3419 55.6532 40.2101 54.9235 40.2806 55.9909L40.4813 55.9945L40.4854 55.5345Z" fill="#191710"/>
<path fill-rule="evenodd" clip-rule="evenodd" d="M7.55335 53.8031L8.31197 53.8022L8.31229 55.3367L7.31058 55.3405C7.3881 55.0948 7.48827 54.988 7.52496 54.6586C7.55814 54.3577 7.54825 54.1056 7.55335 53.8031ZM8.53816 55.3437C8.51582 55.295 8.53433 55.3996 8.51646 55.278L8.51327 53.6209C8.20734 53.6293 7.60918 53.5873 7.34599 53.6418C7.3176 53.9991 7.37375 54.3337 7.30037 54.6987C7.26975 54.8517 7.2321 55.0015 7.16894 55.1224C7.15363 55.1519 7.07993 55.2748 7.06717 55.2876C6.97434 55.3832 7.00082 55.3113 6.86523 55.3569L6.87098 55.9968L7.05728 55.9949L7.06047 55.5349L8.54103 55.5423L8.5423 56.0003L8.74679 55.9853L8.73722 55.3428L8.53816 55.3437Z" fill="#19190E"/>
<path fill-rule="evenodd" clip-rule="evenodd" d="M20.7793 53.8155L21.5382 53.8005L21.5392 55.3337L20.533 55.3398C20.6169 55.0967 20.7018 54.9796 20.741 54.6636C20.7786 54.358 20.7681 54.1203 20.7793 53.8155ZM20.5531 54.3371C20.5557 54.5527 20.5151 54.7897 20.4475 54.9777C20.2861 55.4264 20.2213 55.3074 20.0762 55.3568L20.08 55.9986L20.2854 55.9877L20.2858 55.5348L21.7615 55.5351L21.7647 55.9909L21.9676 55.9945L21.9529 55.3408L21.7545 55.3331L21.7513 53.634L20.5879 53.626C20.5892 53.7475 20.6188 54.2861 20.5531 54.3371Z" fill="#16190D"/>
<path fill-rule="evenodd" clip-rule="evenodd" d="M55.9658 53.6145C55.9227 53.8946 55.9565 54.4832 55.9565 54.7962C55.9559 55.4397 55.879 55.5548 56.1039 55.5388C56.2271 55.5301 56.2188 55.507 56.2743 55.4185C56.3598 55.2819 57.1289 54.045 57.2285 53.9677C57.2428 54.2586 57.2297 54.5816 57.2297 54.8764C57.2301 55.6071 57.1682 55.5413 57.4253 55.532C57.4559 55.3989 57.4562 53.7326 57.4253 53.6065C57.1044 53.5972 57.1774 53.6546 57.0179 53.8984C56.926 54.0389 56.8316 54.1784 56.7423 54.3141C56.6408 54.4684 56.2858 55.0682 56.1818 55.1452C56.1623 54.8629 56.1776 54.5249 56.1776 54.2362C56.1783 53.5574 56.2379 53.5648 55.9658 53.6145Z" fill="#191710"/>
<path fill-rule="evenodd" clip-rule="evenodd" d="M32.6645 54.6904C32.5592 53.5292 34.0672 53.4365 34.1919 54.4521C34.2503 54.9297 33.9549 55.3242 33.5536 55.3797C33.0706 55.4467 32.7031 55.1148 32.6645 54.6904ZM32.4367 54.7436C32.6118 55.9648 34.5658 55.8323 34.4187 54.4296C34.3626 53.8936 33.8857 53.4798 33.2664 53.5687C32.7433 53.6441 32.3464 54.1137 32.4367 54.7436Z" fill="#151710"/>
<path fill-rule="evenodd" clip-rule="evenodd" d="M10.0168 54.6901C9.89297 53.5377 11.4431 53.4334 11.5445 54.4499C11.6594 55.6005 10.1259 55.7054 10.0168 54.6901ZM9.79312 54.7434C9.96571 55.9706 11.9104 55.8426 11.7717 54.4265C11.6469 53.1576 9.59214 53.3144 9.79312 54.7434Z" fill="#151710"/>
<path fill-rule="evenodd" clip-rule="evenodd" d="M43.3091 55.5266C43.6071 55.5629 43.5797 55.4625 43.721 55.253C43.8524 55.058 44.4949 54.0146 44.5645 53.9751L44.5753 55.534L44.7798 55.5305L44.7664 53.6094C44.6318 53.5972 44.567 53.5818 44.4949 53.6829C44.3195 53.9283 43.6039 55.1151 43.5079 55.1651L43.4942 53.6082C43.2221 53.5876 43.3015 53.6611 43.3028 53.9427C43.3047 54.3318 43.2801 55.2569 43.3091 55.5266Z" fill="#15160E"/>
<path fill-rule="evenodd" clip-rule="evenodd" d="M26.8128 53.8091C26.8469 53.8636 26.8252 53.7594 26.8418 53.8893L26.8204 54.5305C26.6954 54.5626 26.5113 54.5549 26.4108 54.5061C26.1393 54.501 25.9227 54.244 26.081 53.973C26.2 53.7693 26.5659 53.7818 26.8128 53.8091ZM27.0418 53.6131C26.9136 53.5929 26.4941 53.5974 26.3582 53.6134C26.1352 53.6394 25.9923 53.7212 25.9017 53.8466C25.8041 53.9817 25.7878 54.2283 25.8643 54.3983C25.9483 54.5847 26.0615 54.6107 26.259 54.6883C26.1977 54.9141 25.8139 55.3426 25.7891 55.5351C26.0966 55.5406 26.0018 55.5707 26.281 55.1082C26.5595 54.6469 26.4411 54.7063 26.8287 54.7085C26.8306 54.8105 26.8185 55.4443 26.8322 55.4841C26.8568 55.555 27.0291 55.5867 27.0514 55.4632C27.0776 55.3195 27.0514 53.6824 27.0418 53.6131Z" fill="#161911"/>
<path fill-rule="evenodd" clip-rule="evenodd" d="M51.1179 54.38C51.1125 54.6106 51.0959 54.8384 51.0311 55.0539C50.938 55.3635 50.849 55.3192 50.5663 55.3529L50.5469 55.5335C51.4494 55.7051 51.3144 54.4958 51.3396 53.803L52.0676 53.8129C52.0727 54.169 52.0207 55.2679 52.0836 55.5325H52.2922L52.2913 53.6346L51.1476 53.6211L51.1479 54.1831C51.1479 54.2052 51.1498 54.2738 51.1476 54.2912L51.1179 54.38Z" fill="#191710"/>
<path fill-rule="evenodd" clip-rule="evenodd" d="M35.8165 54.6334C36.1722 54.5985 36.6915 54.5921 36.6692 55.0094C36.6488 55.394 36.1597 55.3641 35.8145 55.3542L35.8165 54.6334ZM36.3578 55.504C36.7489 55.5329 37.0159 55.1043 36.8357 54.7297C36.6708 54.3868 36.2114 54.4583 35.8139 54.4278L35.8187 53.8075C35.9817 53.787 36.2245 53.8011 36.3971 53.8011C36.6063 53.8014 36.8418 53.8729 36.7429 53.6227C36.6146 53.5666 35.8184 53.5906 35.6292 53.6099L35.627 55.511C35.8665 55.5245 36.1272 55.5152 36.3578 55.504Z" fill="#151710"/>
<path fill-rule="evenodd" clip-rule="evenodd" d="M16.4442 54.8343C16.4685 54.7063 16.7801 53.9452 16.8487 53.8971L17.2233 54.8308L16.4442 54.8343ZM15.9277 55.531C16.1839 55.5499 16.1434 55.5477 16.226 55.3459C16.398 54.9254 16.2158 55.0242 17.3196 55.0393C17.3856 55.1958 17.4466 55.4187 17.54 55.5339L17.7417 55.5329C17.7362 55.43 17.0031 53.7043 16.9259 53.6064L16.7495 53.6068C16.673 53.7271 15.9367 55.4345 15.9277 55.531Z" fill="#151710"/>
<path fill-rule="evenodd" clip-rule="evenodd" d="M24.4049 53.8056C24.4081 53.8116 24.4141 53.8132 24.4151 53.8235L24.4323 53.8889C24.4524 54.0923 24.4103 55.1694 24.4345 55.5142L24.6173 55.5136L24.6177 53.6214C24.3305 53.6208 23.7263 53.5903 23.4746 53.6384C23.4517 54.0006 23.4954 54.3727 23.4446 54.7374C23.3869 55.1515 23.3441 55.3503 22.9154 55.3455L22.9004 55.5361C23.7962 55.6785 23.6702 54.5279 23.6823 53.8017L24.4049 53.8056Z" fill="#19190E"/>
<path fill-rule="evenodd" clip-rule="evenodd" d="M48.6185 55.3293L48.6188 54.6284L49.5305 54.6255L49.521 54.4321L48.6175 54.4325L48.6188 53.8025C48.8245 53.7999 49.0309 53.8015 49.2367 53.8015C49.4473 53.8015 49.6808 53.8737 49.5825 53.6225C49.4626 53.5702 48.6392 53.5985 48.4408 53.6078C48.362 53.7566 48.4012 55.2372 48.4111 55.5163L49.6096 55.5173L49.6084 55.3582C49.4406 55.3543 49.2721 55.3569 49.104 55.3569C48.8944 55.3572 48.7094 55.3813 48.6185 55.3293Z" fill="#19190E"/>
<path fill-rule="evenodd" clip-rule="evenodd" d="M54.7943 55.4901L54.787 55.3393L53.7872 55.3406L53.7901 54.6272L54.697 54.626L54.6878 54.4313L53.7872 54.4338L53.7923 53.8026C54.0089 53.7968 54.6064 53.8427 54.765 53.7843L54.7679 53.6492C54.63 53.5816 53.7904 53.6117 53.584 53.6226L53.5846 55.5141C53.8035 55.5202 54.6479 55.5584 54.7943 55.4901Z" fill="#19190E"/>
<path fill-rule="evenodd" clip-rule="evenodd" d="M29.8203 55.5267C30.0704 55.5681 30.0245 55.5123 30.0216 55.2769L30.0248 53.8007L31.037 53.8055L31.0469 55.5348L31.223 55.5274L31.2224 53.6211L29.8209 53.6256L29.8203 55.5267Z" fill="#151710"/>
<path fill-rule="evenodd" clip-rule="evenodd" d="M38.3096 55.3234L38.3099 54.628L39.2373 54.6255L39.2277 54.4321L38.3074 54.4279L38.3121 53.8018L39.2915 53.7998L39.2804 53.6045L38.122 53.6099L38.1191 55.5117L39.3129 55.5143L39.3155 55.3607L38.5453 55.3587C38.3507 55.3578 38.3651 55.377 38.3096 55.3234Z" fill="#19190E"/>
<path fill-rule="evenodd" clip-rule="evenodd" d="M46.4871 53.8023L46.4932 55.5309L46.6862 55.5315L46.6945 53.802L47.3239 53.7988L47.3159 53.6057H46.0003C45.9199 53.6057 45.8922 53.5838 45.8571 53.6409C45.836 53.6756 45.8472 53.7625 45.8663 53.7818C45.9072 53.8231 46.3914 53.802 46.4871 53.8023Z" fill="#191710"/>
<path fill-rule="evenodd" clip-rule="evenodd" d="M15.2401 24.6813L15.229 20.5239H19.7357L19.7405 25.1121C19.7874 25.0322 19.7654 24.6444 19.7654 24.5501C19.7654 23.9801 19.7915 20.7164 19.7532 20.5072C19.565 20.4729 15.3853 20.4748 15.2136 20.5091C15.1741 20.6945 15.1993 23.694 15.1996 24.2033C15.1996 24.3663 15.1687 24.6412 15.2401 24.6813Z" fill="#655A43"/>
<path fill-rule="evenodd" clip-rule="evenodd" d="M9.7191 24.1508L9.70889 20.5243L14.409 20.5166L14.3991 24.6111C14.4491 24.5351 14.4338 24.4671 14.4326 24.3638C14.4259 23.7348 14.46 20.7283 14.4204 20.5079C14.2478 20.4698 9.89519 20.4698 9.69581 20.5095C9.64253 20.7604 9.68943 23.2617 9.68081 23.9644C9.67794 24.1925 9.68879 24.1306 9.7191 24.1508Z" fill="#655A43"/>
<path fill-rule="evenodd" clip-rule="evenodd" d="M15.2537 15.6784C15.195 15.7117 15.2196 15.6354 15.1989 15.773C15.1973 15.782 15.2001 15.8898 15.2001 15.9081C15.2081 16.5643 15.173 19.6456 15.2126 19.8826L19.7528 19.8714C19.7924 19.6664 19.7901 15.2861 19.7503 15.0927C19.6635 15.0789 19.6459 15.0734 19.5895 15.1212L19.7343 15.1065L19.7381 19.8589L15.2317 19.8557C15.2116 19.1663 15.2317 18.4421 15.2317 17.7486C15.2317 17.4342 15.1848 15.8445 15.2537 15.6784Z" fill="#61533D"/>
<path fill-rule="evenodd" clip-rule="evenodd" d="M53.5273 23.4609C53.5653 23.4153 53.541 23.5164 53.5624 23.3784L53.5614 23.0573C53.5621 22.4983 53.5927 20.4794 53.5496 20.2414C53.3292 20.2016 50.4762 20.2356 49.8727 20.2282C49.7852 20.2273 49.7007 20.2064 49.6621 20.2642L53.5315 20.259L53.5273 23.4609Z" fill="#665A3D"/>
<path fill-rule="evenodd" clip-rule="evenodd" d="M57.7717 22.8485C57.8106 22.802 57.793 22.8572 57.8074 22.7648L57.8061 22.5239C57.8058 22.0617 57.8329 20.4524 57.7943 20.2414C57.6042 20.2064 55.4282 20.2282 55.046 20.2282C54.9528 20.2282 54.2226 20.1888 54.1719 20.2632L57.7764 20.2584L57.7717 22.8485Z" fill="#655A43"/>
<path fill-rule="evenodd" clip-rule="evenodd" d="M49.6602 19.6347C49.7195 19.6938 49.6984 19.6707 49.8988 19.6687C50.488 19.663 53.3445 19.6947 53.5483 19.6582C53.5923 19.4269 53.5592 17.6951 53.5592 17.2156C53.5592 17.0379 53.5994 16.4836 53.5065 16.4521C53.5888 16.7084 53.5193 19.1417 53.5327 19.6447L49.6602 19.6347Z" fill="#61533D"/>
<path fill-rule="evenodd" clip-rule="evenodd" d="M54.1699 19.6343C54.2117 19.6757 54.1517 19.6635 54.2739 19.6718C54.6181 19.6959 57.7352 19.668 57.7927 19.6577C57.8303 19.4617 57.8032 17.8072 57.8035 17.3485C57.8035 17.2436 57.8351 17.098 57.7585 17.0566C57.823 17.2635 57.7662 19.2324 57.7774 19.6442L54.1699 19.6343Z" fill="#5C513C"/>
<path fill-rule="evenodd" clip-rule="evenodd" d="M56.7376 53.2732C56.5347 53.3027 56.4945 53.1751 56.4355 53.0625C56.2562 53.075 56.2645 53.1395 56.3592 53.2877C56.5136 53.5289 57.1025 53.5145 57.0901 53.0705C56.8384 53.0526 56.98 53.2383 56.7376 53.2732Z" fill="#151710"/>
<path fill-rule="evenodd" clip-rule="evenodd" d="M29.8197 55.527L29.8204 53.6259L31.2218 53.6214L31.2225 55.5276C31.2403 55.493 31.2288 55.5623 31.248 55.4635L31.2505 55.2765C31.2477 54.9099 31.2729 53.7933 31.2365 53.5957L29.8031 53.6095C29.7633 53.8263 29.7907 54.3351 29.7907 54.583C29.7907 54.7745 29.7559 55.4115 29.8197 55.527Z" fill="#61533D"/>
<path fill-rule="evenodd" clip-rule="evenodd" d="M24.4049 53.8056L24.4167 55.5396L24.633 55.5313C24.6604 55.386 24.6604 53.7405 24.6314 53.609C24.4958 53.5794 23.9544 53.5971 23.7432 53.5964C23.7021 53.5964 23.6175 53.5907 23.5824 53.5939C23.466 53.6041 23.5113 53.582 23.4746 53.6385C23.7263 53.5904 24.3305 53.6208 24.6176 53.6215L24.6173 55.5136L24.4345 55.5143C24.4103 55.1695 24.4524 54.0923 24.4323 53.889L24.4151 53.8235C24.4141 53.8133 24.4081 53.8117 24.4049 53.8056Z" fill="#61533D"/>
<path fill-rule="evenodd" clip-rule="evenodd" d="M38.3088 55.3239C38.3643 55.3774 38.35 55.3582 38.5446 55.3591L39.3147 55.3611L39.3121 55.5147L38.1184 55.5121L38.1212 53.6104C38.1053 53.6411 38.1136 53.5796 38.096 53.6761C38.0664 53.8381 38.1005 55.5205 38.1034 55.5426L39.3354 55.5314L39.3281 55.3322L38.3088 55.3239Z" fill="#61533D"/>
<path fill-rule="evenodd" clip-rule="evenodd" d="M48.6176 55.3289C48.7085 55.3809 48.8935 55.3569 49.1031 55.3565C49.2712 55.3565 49.4397 55.354 49.6075 55.3578L49.6088 55.5169L48.4102 55.5159C48.4003 55.2369 48.3611 53.7563 48.4399 53.6074C48.3888 53.6344 48.3821 53.5446 48.3856 53.8358C48.3866 53.9157 48.386 53.9962 48.386 54.0761C48.3863 54.2361 48.3863 54.3962 48.3863 54.5562C48.386 54.8266 48.3601 55.2853 48.3959 55.5432L49.6298 55.5313L49.6222 55.3299L48.6176 55.3289Z" fill="#655A43"/>
<path fill-rule="evenodd" clip-rule="evenodd" d="M54.7951 55.4907C54.6487 55.559 53.8042 55.5208 53.5854 55.5148L53.5848 53.6232C53.7912 53.6123 54.6308 53.5822 54.7686 53.6499C54.7329 53.5806 54.7929 53.5995 54.6493 53.5918L53.5586 53.6094L53.5717 55.5318C53.7356 55.5622 54.0186 55.5449 54.1963 55.5452C54.3794 55.5452 54.7693 55.5844 54.7951 55.4907Z" fill="#655A43"/>
<path fill-rule="evenodd" clip-rule="evenodd" d="M36.3572 55.5044C36.1266 55.5157 35.8659 55.525 35.6264 55.5115L35.6286 53.6104C35.5638 53.7358 35.6027 55.4794 35.6101 55.5333C35.7185 55.5468 36.3234 55.5747 36.3572 55.5044Z" fill="#61533D"/>
<path fill-rule="evenodd" clip-rule="evenodd" d="M8.53982 55.3438L8.53089 53.6091C8.37616 53.5761 8.10404 53.5979 7.93433 53.5976C7.82809 53.5976 7.72186 53.5982 7.61595 53.5979C7.57607 53.5976 7.48802 53.5918 7.45485 53.595C7.33171 53.6062 7.38307 53.5832 7.34766 53.6419C7.61084 53.5873 8.209 53.6293 8.51494 53.621L8.51813 55.2781C8.53599 55.3996 8.51749 55.2951 8.53982 55.3438Z" fill="#5D5233"/>
<path fill-rule="evenodd" clip-rule="evenodd" d="M51.1172 54.3804L51.1469 54.2915C51.1491 54.2742 51.1472 54.2055 51.1472 54.1834L51.1469 53.6214L52.2905 53.6349C52.2258 53.5717 52.1262 53.5948 51.9942 53.5955C51.783 53.5971 51.2687 53.5823 51.1217 53.6096L51.1172 54.3804Z" fill="#5D5442"/>
<path fill-rule="evenodd" clip-rule="evenodd" d="M20.5547 54.3373C20.6204 54.2863 20.5907 53.7477 20.5895 53.6261L21.7529 53.6342C21.7102 53.5848 21.7689 53.6184 21.6993 53.5986C21.6987 53.5982 21.6279 53.5941 21.6237 53.5938L20.5649 53.6098L20.5547 54.3373Z" fill="#5D5442"/>
<path fill-rule="evenodd" clip-rule="evenodd" d="M26.4102 54.5056C26.5106 54.5544 26.6947 54.5621 26.8198 54.53L26.8411 53.8888C26.8246 53.7589 26.8463 53.8631 26.8121 53.8086L26.8131 54.5107L26.4102 54.5056Z" fill="#776A55"/>
<path fill-rule="evenodd" clip-rule="evenodd" d="M10.6907 40.6337C10.6674 40.6474 10.6425 40.6691 10.6387 40.6621C10.6345 40.6551 10.6202 40.6666 10.6096 40.6733L10.543 40.6133C10.5832 40.7061 10.5691 40.6898 10.6454 40.7202L10.6907 40.6337Z" fill="#E7B888"/>
<path fill-rule="evenodd" clip-rule="evenodd" d="M64.7581 20.4395L64.7132 20.4548C64.7479 20.4921 64.6548 20.5068 64.7556 20.4879C64.8462 20.3776 64.762 20.4442 64.7581 20.4395Z" fill="#8E846F"/>
<path fill-rule="evenodd" clip-rule="evenodd" d="M0.0785951 20.2706L0.0683865 20.2588C0.00522134 20.3015 0.0313807 20.2515 0.00585938 20.3389C0.077 20.3111 0.0450984 20.3312 0.0785951 20.2706Z" fill="#504732"/>
<path fill-rule="evenodd" clip-rule="evenodd" d="M13.8906 55.1167C13.8913 55.1177 13.9136 55.2198 13.964 55.0947L13.8906 55.1167Z" fill="#675A46"/>
</svg>
