<svg width="182" height="40" viewBox="0 0 182 40" fill="none" xmlns="http://www.w3.org/2000/svg">
<path d="M20 4.0625C16.8479 4.0625 13.7665 4.99722 11.1456 6.74845C8.5247 8.49969 6.48195 10.9888 5.27568 13.901C4.06941 16.8132 3.75379 20.0177 4.36874 23.1093C4.98369 26.2008 6.50159 29.0406 8.73049 31.2695C10.9594 33.4984 13.7992 35.0163 16.8908 35.6313C19.9823 36.2462 23.1868 35.9306 26.099 34.7243C29.0112 33.5181 31.5003 31.4753 33.2516 28.8544C35.0028 26.2335 35.9375 23.1521 35.9375 20C35.9325 15.7746 34.2518 11.7238 31.264 8.73597C28.2763 5.74818 24.2254 4.06746 20 4.0625ZM20 34.0625C17.2187 34.0625 14.4999 33.2377 12.1873 31.6925C9.87473 30.1473 8.07231 27.9511 7.00795 25.3815C5.94359 22.8119 5.66511 19.9844 6.20771 17.2565C6.75032 14.5287 8.08964 12.023 10.0563 10.0563C12.023 8.08963 14.5287 6.75031 17.2565 6.20771C19.9844 5.6651 22.8119 5.94359 25.3815 7.00794C27.9511 8.0723 30.1473 9.87473 31.6925 12.1873C33.2378 14.4999 34.0625 17.2187 34.0625 20C34.0584 23.7283 32.5755 27.3028 29.9391 29.9391C27.3028 32.5755 23.7283 34.0584 20 34.0625ZM29.6875 20C29.6875 20.2486 29.5887 20.4871 29.4129 20.6629C29.2371 20.8387 28.9986 20.9375 28.75 20.9375H20C19.7514 20.9375 19.5129 20.8387 19.3371 20.6629C19.1613 20.4871 19.0625 20.2486 19.0625 20V11.25C19.0625 11.0014 19.1613 10.7629 19.3371 10.5871C19.5129 10.4113 19.7514 10.3125 20 10.3125C20.2486 10.3125 20.4871 10.4113 20.6629 10.5871C20.8387 10.7629 20.9375 11.0014 20.9375 11.25V19.0625H28.75C28.9986 19.0625 29.2371 19.1613 29.4129 19.3371C29.5887 19.5129 29.6875 19.7514 29.6875 20Z" fill="#EFA35A"/>
<path d="M73.1289 19.1094V21.7109C73.1289 23.1094 73.0039 24.2891 72.7539 25.25C72.5039 26.2109 72.1445 26.9844 71.6758 27.5703C71.207 28.1562 70.6406 28.582 69.9766 28.8477C69.3203 29.1055 68.5781 29.2344 67.75 29.2344C67.0938 29.2344 66.4883 29.1523 65.9336 28.9883C65.3789 28.8242 64.8789 28.5625 64.4336 28.2031C63.9961 27.8359 63.6211 27.3594 63.3086 26.7734C62.9961 26.1875 62.7578 25.4766 62.5938 24.6406C62.4297 23.8047 62.3477 22.8281 62.3477 21.7109V19.1094C62.3477 17.7109 62.4727 16.5391 62.7227 15.5938C62.9805 14.6484 63.3438 13.8906 63.8125 13.3203C64.2812 12.7422 64.8438 12.3281 65.5 12.0781C66.1641 11.8281 66.9062 11.7031 67.7266 11.7031C68.3906 11.7031 69 11.7852 69.5547 11.9492C70.1172 12.1055 70.6172 12.3594 71.0547 12.7109C71.4922 13.0547 71.8633 13.5156 72.168 14.0938C72.4805 14.6641 72.7188 15.3633 72.8828 16.1914C73.0469 17.0195 73.1289 17.9922 73.1289 19.1094ZM70.9492 22.0625V18.7461C70.9492 17.9805 70.9023 17.3086 70.8086 16.7305C70.7227 16.1445 70.5938 15.6445 70.4219 15.2305C70.25 14.8164 70.0312 14.4805 69.7656 14.2227C69.5078 13.9648 69.207 13.7773 68.8633 13.6602C68.5273 13.5352 68.1484 13.4727 67.7266 13.4727C67.2109 13.4727 66.7539 13.5703 66.3555 13.7656C65.957 13.9531 65.6211 14.2539 65.3477 14.668C65.082 15.082 64.8789 15.625 64.7383 16.2969C64.5977 16.9688 64.5273 17.7852 64.5273 18.7461V22.0625C64.5273 22.8281 64.5703 23.5039 64.6562 24.0898C64.75 24.6758 64.8867 25.1836 65.0664 25.6133C65.2461 26.0352 65.4648 26.3828 65.7227 26.6562C65.9805 26.9297 66.2773 27.1328 66.6133 27.2656C66.957 27.3906 67.3359 27.4531 67.75 27.4531C68.2812 27.4531 68.7461 27.3516 69.1445 27.1484C69.543 26.9453 69.875 26.6289 70.1406 26.1992C70.4141 25.7617 70.6172 25.2031 70.75 24.5234C70.8828 23.8359 70.9492 23.0156 70.9492 22.0625ZM83.043 11.8438V29H80.875V14.5508L76.5039 16.1445V14.1875L82.7031 11.8438H83.043ZM89.6875 27.8516C89.6875 27.4844 89.8008 27.1758 90.0273 26.9258C90.2617 26.668 90.5977 26.5391 91.0352 26.5391C91.4727 26.5391 91.8047 26.668 92.0312 26.9258C92.2656 27.1758 92.3828 27.4844 92.3828 27.8516C92.3828 28.2109 92.2656 28.5156 92.0312 28.7656C91.8047 29.0156 91.4727 29.1406 91.0352 29.1406C90.5977 29.1406 90.2617 29.0156 90.0273 28.7656C89.8008 28.5156 89.6875 28.2109 89.6875 27.8516ZM106.457 19.1094V21.7109C106.457 23.1094 106.332 24.2891 106.082 25.25C105.832 26.2109 105.473 26.9844 105.004 27.5703C104.535 28.1562 103.969 28.582 103.305 28.8477C102.648 29.1055 101.906 29.2344 101.078 29.2344C100.422 29.2344 99.8164 29.1523 99.2617 28.9883C98.707 28.8242 98.207 28.5625 97.7617 28.2031C97.3242 27.8359 96.9492 27.3594 96.6367 26.7734C96.3242 26.1875 96.0859 25.4766 95.9219 24.6406C95.7578 23.8047 95.6758 22.8281 95.6758 21.7109V19.1094C95.6758 17.7109 95.8008 16.5391 96.0508 15.5938C96.3086 14.6484 96.6719 13.8906 97.1406 13.3203C97.6094 12.7422 98.1719 12.3281 98.8281 12.0781C99.4922 11.8281 100.234 11.7031 101.055 11.7031C101.719 11.7031 102.328 11.7852 102.883 11.9492C103.445 12.1055 103.945 12.3594 104.383 12.7109C104.82 13.0547 105.191 13.5156 105.496 14.0938C105.809 14.6641 106.047 15.3633 106.211 16.1914C106.375 17.0195 106.457 17.9922 106.457 19.1094ZM104.277 22.0625V18.7461C104.277 17.9805 104.23 17.3086 104.137 16.7305C104.051 16.1445 103.922 15.6445 103.75 15.2305C103.578 14.8164 103.359 14.4805 103.094 14.2227C102.836 13.9648 102.535 13.7773 102.191 13.6602C101.855 13.5352 101.477 13.4727 101.055 13.4727C100.539 13.4727 100.082 13.5703 99.6836 13.7656C99.2852 13.9531 98.9492 14.2539 98.6758 14.668C98.4102 15.082 98.207 15.625 98.0664 16.2969C97.9258 16.9688 97.8555 17.7852 97.8555 18.7461V22.0625C97.8555 22.8281 97.8984 23.5039 97.9844 24.0898C98.0781 24.6758 98.2148 25.1836 98.3945 25.6133C98.5742 26.0352 98.793 26.3828 99.0508 26.6562C99.3086 26.9297 99.6055 27.1328 99.9414 27.2656C100.285 27.3906 100.664 27.4531 101.078 27.4531C101.609 27.4531 102.074 27.3516 102.473 27.1484C102.871 26.9453 103.203 26.6289 103.469 26.1992C103.742 25.7617 103.945 25.2031 104.078 24.5234C104.211 23.8359 104.277 23.0156 104.277 22.0625ZM117.566 11.9141H117.754V13.7539H117.566C116.418 13.7539 115.457 13.9414 114.684 14.3164C113.91 14.6836 113.297 15.1797 112.844 15.8047C112.391 16.4219 112.062 17.1172 111.859 17.8906C111.664 18.6641 111.566 19.4492 111.566 20.2461V22.7539C111.566 23.5117 111.656 24.1836 111.836 24.7695C112.016 25.3477 112.262 25.8359 112.574 26.2344C112.887 26.6328 113.238 26.9336 113.629 27.1367C114.027 27.3398 114.441 27.4414 114.871 27.4414C115.371 27.4414 115.816 27.3477 116.207 27.1602C116.598 26.9648 116.926 26.6953 117.191 26.3516C117.465 26 117.672 25.5859 117.812 25.1094C117.953 24.6328 118.023 24.1094 118.023 23.5391C118.023 23.0312 117.961 22.543 117.836 22.0742C117.711 21.5977 117.52 21.1758 117.262 20.8086C117.004 20.4336 116.68 20.1406 116.289 19.9297C115.906 19.7109 115.449 19.6016 114.918 19.6016C114.316 19.6016 113.754 19.75 113.23 20.0469C112.715 20.3359 112.289 20.7188 111.953 21.1953C111.625 21.6641 111.438 22.1758 111.391 22.7305L110.242 22.7188C110.352 21.8438 110.555 21.0977 110.852 20.4805C111.156 19.8555 111.531 19.3477 111.977 18.957C112.43 18.5586 112.934 18.2695 113.488 18.0898C114.051 17.9023 114.645 17.8086 115.27 17.8086C116.121 17.8086 116.855 17.9688 117.473 18.2891C118.09 18.6094 118.598 19.0391 118.996 19.5781C119.395 20.1094 119.688 20.7109 119.875 21.3828C120.07 22.0469 120.168 22.7305 120.168 23.4336C120.168 24.2383 120.055 24.9922 119.828 25.6953C119.602 26.3984 119.262 27.0156 118.809 27.5469C118.363 28.0781 117.812 28.4922 117.156 28.7891C116.5 29.0859 115.738 29.2344 114.871 29.2344C113.949 29.2344 113.145 29.0469 112.457 28.6719C111.77 28.2891 111.199 27.7812 110.746 27.1484C110.293 26.5156 109.953 25.8125 109.727 25.0391C109.5 24.2656 109.387 23.4805 109.387 22.6836V21.6641C109.387 20.4609 109.508 19.2812 109.75 18.125C109.992 16.9688 110.41 15.9219 111.004 14.9844C111.605 14.0469 112.438 13.3008 113.5 12.7461C114.562 12.1914 115.918 11.9141 117.566 11.9141ZM123.016 27.8516C123.016 27.4844 123.129 27.1758 123.355 26.9258C123.59 26.668 123.926 26.5391 124.363 26.5391C124.801 26.5391 125.133 26.668 125.359 26.9258C125.594 27.1758 125.711 27.4844 125.711 27.8516C125.711 28.2109 125.594 28.5156 125.359 28.7656C125.133 29.0156 124.801 29.1406 124.363 29.1406C123.926 29.1406 123.59 29.0156 123.355 28.7656C123.129 28.5156 123.016 28.2109 123.016 27.8516ZM140.254 27.2188V29H129.086V27.4414L134.676 21.2188C135.363 20.4531 135.895 19.8047 136.27 19.2734C136.652 18.7344 136.918 18.2539 137.066 17.832C137.223 17.4023 137.301 16.9648 137.301 16.5195C137.301 15.957 137.184 15.4492 136.949 14.9961C136.723 14.5352 136.387 14.168 135.941 13.8945C135.496 13.6211 134.957 13.4844 134.324 13.4844C133.566 13.4844 132.934 13.6328 132.426 13.9297C131.926 14.2188 131.551 14.625 131.301 15.1484C131.051 15.6719 130.926 16.2734 130.926 16.9531H128.758C128.758 15.9922 128.969 15.1133 129.391 14.3164C129.812 13.5195 130.438 12.8867 131.266 12.418C132.094 11.9414 133.113 11.7031 134.324 11.7031C135.402 11.7031 136.324 11.8945 137.09 12.2773C137.855 12.6523 138.441 13.1836 138.848 13.8711C139.262 14.5508 139.469 15.3477 139.469 16.2617C139.469 16.7617 139.383 17.2695 139.211 17.7852C139.047 18.293 138.816 18.8008 138.52 19.3086C138.23 19.8164 137.891 20.3164 137.5 20.8086C137.117 21.3008 136.707 21.7852 136.27 22.2617L131.699 27.2188H140.254ZM153.285 19.1094V21.7109C153.285 23.1094 153.16 24.2891 152.91 25.25C152.66 26.2109 152.301 26.9844 151.832 27.5703C151.363 28.1562 150.797 28.582 150.133 28.8477C149.477 29.1055 148.734 29.2344 147.906 29.2344C147.25 29.2344 146.645 29.1523 146.09 28.9883C145.535 28.8242 145.035 28.5625 144.59 28.2031C144.152 27.8359 143.777 27.3594 143.465 26.7734C143.152 26.1875 142.914 25.4766 142.75 24.6406C142.586 23.8047 142.504 22.8281 142.504 21.7109V19.1094C142.504 17.7109 142.629 16.5391 142.879 15.5938C143.137 14.6484 143.5 13.8906 143.969 13.3203C144.438 12.7422 145 12.3281 145.656 12.0781C146.32 11.8281 147.062 11.7031 147.883 11.7031C148.547 11.7031 149.156 11.7852 149.711 11.9492C150.273 12.1055 150.773 12.3594 151.211 12.7109C151.648 13.0547 152.02 13.5156 152.324 14.0938C152.637 14.6641 152.875 15.3633 153.039 16.1914C153.203 17.0195 153.285 17.9922 153.285 19.1094ZM151.105 22.0625V18.7461C151.105 17.9805 151.059 17.3086 150.965 16.7305C150.879 16.1445 150.75 15.6445 150.578 15.2305C150.406 14.8164 150.188 14.4805 149.922 14.2227C149.664 13.9648 149.363 13.7773 149.02 13.6602C148.684 13.5352 148.305 13.4727 147.883 13.4727C147.367 13.4727 146.91 13.5703 146.512 13.7656C146.113 13.9531 145.777 14.2539 145.504 14.668C145.238 15.082 145.035 15.625 144.895 16.2969C144.754 16.9688 144.684 17.7852 144.684 18.7461V22.0625C144.684 22.8281 144.727 23.5039 144.812 24.0898C144.906 24.6758 145.043 25.1836 145.223 25.6133C145.402 26.0352 145.621 26.3828 145.879 26.6562C146.137 26.9297 146.434 27.1328 146.77 27.2656C147.113 27.3906 147.492 27.4531 147.906 27.4531C148.438 27.4531 148.902 27.3516 149.301 27.1484C149.699 26.9453 150.031 26.6289 150.297 26.1992C150.57 25.7617 150.773 25.2031 150.906 24.5234C151.039 23.8359 151.105 23.0156 151.105 22.0625ZM167.254 27.2188V29H156.086V27.4414L161.676 21.2188C162.363 20.4531 162.895 19.8047 163.27 19.2734C163.652 18.7344 163.918 18.2539 164.066 17.832C164.223 17.4023 164.301 16.9648 164.301 16.5195C164.301 15.957 164.184 15.4492 163.949 14.9961C163.723 14.5352 163.387 14.168 162.941 13.8945C162.496 13.6211 161.957 13.4844 161.324 13.4844C160.566 13.4844 159.934 13.6328 159.426 13.9297C158.926 14.2188 158.551 14.625 158.301 15.1484C158.051 15.6719 157.926 16.2734 157.926 16.9531H155.758C155.758 15.9922 155.969 15.1133 156.391 14.3164C156.812 13.5195 157.438 12.8867 158.266 12.418C159.094 11.9414 160.113 11.7031 161.324 11.7031C162.402 11.7031 163.324 11.8945 164.09 12.2773C164.855 12.6523 165.441 13.1836 165.848 13.8711C166.262 14.5508 166.469 15.3477 166.469 16.2617C166.469 16.7617 166.383 17.2695 166.211 17.7852C166.047 18.293 165.816 18.8008 165.52 19.3086C165.23 19.8164 164.891 20.3164 164.5 20.8086C164.117 21.3008 163.707 21.7852 163.27 22.2617L158.699 27.2188H167.254ZM172.738 19.4023H174.285C175.043 19.4023 175.668 19.2773 176.16 19.0273C176.66 18.7695 177.031 18.4219 177.273 17.9844C177.523 17.5391 177.648 17.0391 177.648 16.4844C177.648 15.8281 177.539 15.2773 177.32 14.832C177.102 14.3867 176.773 14.0508 176.336 13.8242C175.898 13.5977 175.344 13.4844 174.672 13.4844C174.062 13.4844 173.523 13.6055 173.055 13.8477C172.594 14.082 172.23 14.418 171.965 14.8555C171.707 15.293 171.578 15.8086 171.578 16.4023H169.41C169.41 15.5352 169.629 14.7461 170.066 14.0352C170.504 13.3242 171.117 12.7578 171.906 12.3359C172.703 11.9141 173.625 11.7031 174.672 11.7031C175.703 11.7031 176.605 11.8867 177.379 12.2539C178.152 12.6133 178.754 13.1523 179.184 13.8711C179.613 14.582 179.828 15.4688 179.828 16.5312C179.828 16.9609 179.727 17.4219 179.523 17.9141C179.328 18.3984 179.02 18.8516 178.598 19.2734C178.184 19.6953 177.645 20.043 176.98 20.3164C176.316 20.582 175.52 20.7148 174.59 20.7148H172.738V19.4023ZM172.738 21.1836V19.8828H174.59C175.676 19.8828 176.574 20.0117 177.285 20.2695C177.996 20.5273 178.555 20.8711 178.961 21.3008C179.375 21.7305 179.664 22.2031 179.828 22.7188C180 23.2266 180.086 23.7344 180.086 24.2422C180.086 25.0391 179.949 25.7461 179.676 26.3633C179.41 26.9805 179.031 27.5039 178.539 27.9336C178.055 28.3633 177.484 28.6875 176.828 28.9062C176.172 29.125 175.457 29.2344 174.684 29.2344C173.941 29.2344 173.242 29.1289 172.586 28.918C171.938 28.707 171.363 28.4023 170.863 28.0039C170.363 27.5977 169.973 27.1016 169.691 26.5156C169.41 25.9219 169.27 25.2461 169.27 24.4883H171.438C171.438 25.082 171.566 25.6016 171.824 26.0469C172.09 26.4922 172.465 26.8398 172.949 27.0898C173.441 27.332 174.02 27.4531 174.684 27.4531C175.348 27.4531 175.918 27.3398 176.395 27.1133C176.879 26.8789 177.25 26.5273 177.508 26.0586C177.773 25.5898 177.906 25 177.906 24.2891C177.906 23.5781 177.758 22.9961 177.461 22.543C177.164 22.082 176.742 21.7422 176.195 21.5234C175.656 21.2969 175.02 21.1836 174.285 21.1836H172.738Z" fill="#414753"/>
</svg>
