<svg width="232" height="199" viewBox="0 0 232 199" fill="none" xmlns="http://www.w3.org/2000/svg">
<g clip-path="url(#clip0_106_4866)">
<path fill-rule="evenodd" clip-rule="evenodd" d="M0.240234 71.9927L0.276671 72.0348C0.905201 71.6952 1.45175 70.936 1.96755 70.4425C3.14947 69.3095 5.62829 67.0628 6.62916 66.0073C7.55146 65.035 8.71173 64.0662 9.53383 63.2307L11.1974 61.5779C11.3773 61.4024 11.4877 61.3465 11.6585 61.1847C11.8328 61.0194 11.7109 61.1231 11.8373 60.9863C11.991 60.8199 11.8476 60.9533 12.0275 60.7982C12.4032 60.4757 12.4772 60.3377 12.8325 59.9958L17.8482 55.1594C18.1807 54.8688 18.3617 54.6659 18.6703 54.3684L26.618 46.7781C26.8082 46.5969 26.774 46.5752 26.9869 46.3917L29.5113 43.9901C30.3049 43.1933 31.1327 42.2917 32.0175 41.5702L33.6286 39.9607C33.9486 39.6404 34.2048 39.4865 34.5304 39.1571L36.6039 37.1544C36.7075 37.0564 36.8248 36.9128 36.9785 36.7748L38.6466 35.1266C38.9518 34.8314 39.1898 34.6832 39.5006 34.3698L46.1355 27.9331C46.3063 27.7678 46.427 27.6937 46.5853 27.5261C47.511 26.5493 48.6485 25.6021 49.4899 24.7495L52.7874 21.5135C53.0835 21.2274 53.3283 21.021 53.5868 20.719C54.1105 20.9401 61.9934 29.2405 63.0842 30.3495C64.6703 31.9613 66.1972 33.54 67.8289 35.1722L72.4814 39.9938C73.2078 40.8521 74.0857 41.6238 74.8816 42.4239L79.5603 47.2181C82.7565 50.4017 85.7523 53.6913 88.9405 56.8795C89.7341 57.6728 90.5266 58.465 91.31 59.2458C91.7552 59.6903 92.0524 60.0893 92.493 60.5258C92.9109 60.9373 93.2571 61.3066 93.6795 61.709C94.4936 62.4829 95.3157 63.3184 96.0046 64.1198C96.6878 64.9131 97.5736 65.7087 98.3627 66.4975C99.1837 67.3193 99.8703 68.0967 100.684 68.9128C101.903 70.1313 104.407 72.8327 105.42 73.7458C106.269 74.5129 107.02 75.3427 107.741 76.1622C108.305 76.8028 108.967 77.3146 109.55 77.9506C109.762 78.182 109.868 78.3188 110.094 78.5445C110.777 79.2261 112.899 81.5754 113.652 82.1852C114.019 82.4815 115.334 82.3345 115.892 82.3345H134.922C137.397 82.3345 142.244 82.4701 144.421 82.3163L150.47 74.7511C150.99 74.0763 151.48 73.5166 151.985 72.8544L155.016 69.0655C155.504 68.4329 155.984 67.9075 156.501 67.2361L182.175 35.2133C182.481 34.8212 182.638 34.6297 182.941 34.2752C184.66 32.2679 186.529 29.807 188.21 27.7017C188.729 27.052 189.182 26.49 189.725 25.8061L192.008 22.9736C192.214 22.7171 192.453 22.2942 192.773 22.0902C193.587 22.8778 196.756 27.3666 197.622 28.4574C199.284 30.5547 200.765 32.701 202.398 34.7642C204.871 37.8873 207.153 41.0903 209.57 44.2671L219.12 56.8863C220.399 58.6029 230.831 72.1933 230.97 72.688L231.131 72.6333C230.449 71.1207 229.619 69.5819 228.866 68.0762L199.196 9.06178C198.1 6.86415 195.504 1.90924 194.691 0L69.4036 15.3537L65.0973 11.4657C64.9037 11.2845 64.717 11.1762 64.5257 10.9904L59.765 6.65784C58.9179 5.97621 57.9717 4.97999 57.1416 4.26416L56.1009 3.31467C55.88 3.13344 55.7399 3.02857 55.5293 2.8405L53.4467 0.944932C53.2019 0.688467 52.6633 0.1459 52.3604 0.0512931L47.4426 6.77638C46.9063 7.50361 46.3188 8.28212 45.811 9.02872L42.5488 13.5334C41.4249 15.0197 40.374 16.5346 39.29 18.046C37.0935 21.1077 34.9312 24.028 32.7587 27.052C31.6565 28.5862 30.5122 30.0452 29.4908 31.5509C27.5597 34.3971 25.0273 37.5693 23.0017 40.5044C21.1628 43.1671 18.397 46.8784 16.475 49.5172C12.1538 55.4489 7.60497 61.6064 3.4068 67.5222C2.95362 68.1605 0.332464 71.6302 0.240234 71.9927Z" fill="white"/>
<path fill-rule="evenodd" clip-rule="evenodd" d="M213.381 135.609C212.945 134.506 210.432 127.672 210.149 127.271L200.376 127.289L200.353 127.828L203.427 127.855C203.523 128.629 203.448 146.922 203.449 148.66C203.45 149.862 203.529 150.777 202.815 151.509C201.862 152.486 200.918 152.165 200.351 152.451L200.344 152.921C201.379 152.941 206.777 153.1 207.292 152.83L207.283 152.405C204.794 152.151 204.06 151.67 204.063 149.039L204.057 129.445C204.528 130.258 208.296 140.461 208.759 141.662C209.544 143.698 210.303 145.72 211.086 147.77C211.853 149.781 212.717 151.884 213.394 153.882L213.976 153.853C214.726 151.913 215.406 149.687 216.06 147.709C216.737 145.669 217.444 143.659 218.121 141.62L222.235 129.516L222.347 152.381C221.691 152.398 219.659 152.281 219.179 152.45L219.169 152.83C219.514 153.022 230.74 152.976 231.981 152.917L231.919 152.39H228.814V127.843L231.937 127.828L231.927 127.271H222.429C222.105 127.8 219.935 134.429 219.523 135.63C219.151 136.715 216.917 143.677 216.632 143.993C216.361 143.652 213.8 136.67 213.381 135.609Z" fill="white"/>
<path fill-rule="evenodd" clip-rule="evenodd" d="M17.7128 127.817C18.5303 127.777 23.3638 127.72 23.7749 127.878C24.1404 128.056 25.3212 131.306 25.5626 131.89C26.1364 133.278 26.6796 134.662 27.2796 136.049C27.6884 136.996 27.3001 137.44 26.9813 138.316C26.6261 139.293 24.8304 144.501 24.5241 144.662L21.082 136.28C20.63 135.193 17.6797 128.351 17.7128 127.817ZM38.1548 144.396L37.9931 144.705C37.721 144.597 37.7711 144.655 37.6276 144.323C37.4933 143.406 30.9962 128.687 30.9757 127.822C31.6805 127.77 32.9865 127.968 33.5069 127.729C33.4955 127.157 33.6025 127.293 32.194 127.298C28.6608 127.312 8.25634 127.155 7.42969 127.361C7.47637 127.868 7.4331 127.823 8.04114 127.819C10.5746 127.8 10.4938 127.504 10.9629 128.683L11.9877 131.166C12.4477 132.289 12.8929 133.351 13.3358 134.459C14.2228 136.669 15.1349 138.827 16.0401 141.04L20.8156 152.658C20.9328 152.94 21.0296 153.189 21.1469 153.472C21.2961 153.833 21.345 153.915 21.8347 153.83C22.1273 153.407 25.7983 143.086 26.3346 141.654C26.5816 140.993 27.5689 138.034 27.8387 137.686C28.3511 138.07 33.9988 153.119 34.6501 153.852C35.3253 153.888 35.2274 153.594 35.6669 152.433C38.1286 145.942 40.5266 139.147 42.9451 132.601C43.4324 131.281 43.7433 130.15 44.5483 129.275C45.8748 127.833 47.4074 127.993 47.9039 127.732L47.8822 127.347C47.2822 127.212 41.4239 127.236 40.9479 127.363C41.031 128.354 41.7871 127.403 42.7572 128.704C43.3094 129.445 43.3094 130.144 42.9599 131.094C42.4019 132.611 41.885 134.002 41.3236 135.528C40.9616 136.513 38.1002 144.044 38.1548 144.396Z" fill="#EFA35A"/>
<path fill-rule="evenodd" clip-rule="evenodd" d="M133.428 152.349L133.431 127.858C134.434 127.725 137.26 127.797 138.131 128.096C139.311 128.503 140.298 129.472 140.803 130.453C141.645 132.083 141.301 137.8 141.301 140.035C141.301 141.709 141.301 143.384 141.301 145.058C141.301 146.699 141.482 148.231 140.844 149.659C140.396 150.663 139.345 151.668 138.241 152.078C137.292 152.43 134.516 152.523 133.428 152.349ZM133.029 127.271C131.862 127.272 124.203 127.17 123.746 127.333L123.735 127.713C124.307 128.069 126.115 127.762 126.948 127.856L126.947 152.348C126.147 152.472 124.339 152.237 123.742 152.45L123.73 152.831C124.161 153.069 131.967 152.921 133.123 152.924C136.126 152.934 138.917 153.142 141.509 151.934C142.069 151.673 142.568 151.406 143.045 151.103C143.432 150.857 144.167 150.326 144.396 150.085L145.523 148.847C147.331 146.547 148.423 143.24 148.391 140.035C148.357 136.502 146.732 132.101 144.268 130.018C140.785 127.076 137.585 127.263 133.029 127.271Z" fill="white"/>
<path fill-rule="evenodd" clip-rule="evenodd" d="M174.602 127.384C177.161 127.041 179.244 128.945 179.72 130.921C180.126 132.611 179.894 137.441 179.894 139.465C179.894 141.215 179.978 146.955 179.869 148.247C179.38 154.01 171.756 154.348 170.49 149.267C170.131 147.826 170.357 142.534 170.357 140.698C170.357 137.807 170.262 134.754 170.361 131.883C170.383 131.27 170.536 130.64 170.756 130.127C171.118 129.29 172.084 128.305 172.881 127.89C173.413 127.613 173.909 127.476 174.602 127.384ZM187.112 140.698C187.26 139.107 186.841 136.725 186.363 135.265C185.521 132.7 184.462 131.023 182.642 129.42C178.224 125.53 170.414 126.058 166.642 130.274C166.465 130.472 166.391 130.507 166.233 130.714C166.11 130.877 166.07 130.942 165.909 131.147C162.058 136.045 162.23 144.127 165.981 149.132C170.048 154.559 179.115 154.856 183.603 149.903C184.097 149.359 184.564 148.772 184.977 148.06C186.52 145.406 186.823 143.786 187.112 140.698Z" fill="white"/>
<path fill-rule="evenodd" clip-rule="evenodd" d="M54.4428 55.7159C54.1968 56.3064 54.3642 61.9555 54.3642 63.0725C54.3642 65.5369 54.2925 68.1106 54.3642 70.5602L70.4487 70.5716L70.435 53.6836L69.9181 53.736C69.3203 53.6916 63.1386 54.5396 62.0808 54.7003C60.801 54.8953 59.4927 55.032 58.2185 55.195C57.1368 55.3341 55.4243 55.464 54.4428 55.7159Z" fill="white"/>
<path fill-rule="evenodd" clip-rule="evenodd" d="M54.3953 87.7071L70.4581 89.238L70.4411 72.9336H54.3555L54.3953 87.7071Z" fill="white"/>
<path fill-rule="evenodd" clip-rule="evenodd" d="M34.6888 85.8207L51.3927 87.4564L51.428 72.9062L34.6523 72.9336L34.6888 85.8207Z" fill="white"/>
<path fill-rule="evenodd" clip-rule="evenodd" d="M34.6211 70.6247L51.4764 70.5939L51.4434 56.0859L34.5938 58.2995L34.6211 70.6247Z" fill="white"/>
<path fill-rule="evenodd" clip-rule="evenodd" d="M102.081 127.428C102.081 127.935 102.153 127.82 102.679 127.876C105.499 128.176 105.192 130.385 105.192 132.451C105.192 134.968 105.351 138.049 105.187 140.494C104.847 140.343 102.414 136.261 102.018 135.627C100.998 133.993 99.9982 132.396 98.9621 130.726C96.4263 126.634 97.4181 127.289 94.305 127.289C93.1174 127.289 86.9961 127.153 86.4336 127.389C86.4757 127.852 86.4484 127.811 87.0041 127.816C87.521 127.82 89.3326 127.701 89.5056 127.902C89.6787 128.104 89.5717 146.156 89.566 148.945C89.5569 153.518 86.363 151.53 86.4541 152.83C86.8583 153.006 92.6677 153.002 93.0935 152.859C93.2028 152.607 93.1823 152.815 93.147 152.45C91.8524 151.903 90.0807 152.768 90.0977 148.848L90.0955 128.971C90.4815 129.113 90.2458 128.904 90.519 129.332L104.437 151.691C104.947 152.528 105.071 152.972 105.615 152.888C105.672 152.775 105.65 152.87 105.693 152.637L105.707 151.977C105.624 145.263 105.704 138.155 105.695 131.407C105.694 130.289 105.785 129.279 106.46 128.601C106.799 128.26 107.112 128.102 107.621 127.97C108.801 127.662 108.771 128.123 108.826 127.371C108.48 127.245 102.455 127.136 102.081 127.428Z" fill="#EFA35A"/>
<path fill-rule="evenodd" clip-rule="evenodd" d="M72.0553 127.806C72.5039 127.804 73.1415 127.876 73.4626 127.729C73.4501 127.155 73.3977 127.281 72.7236 127.293C69.0868 127.358 63.9584 127.135 60.6426 127.363C60.695 127.945 60.7861 127.826 61.4477 127.811C64.1144 127.748 63.8103 127.59 63.8069 128.756C63.7842 136.604 63.873 144.559 63.7955 152.381L62.5875 152.394C61.9396 152.398 60.5185 152.244 60.6335 152.707C60.7121 153.021 61.2587 152.92 61.6401 152.92C64.9592 152.918 70.6251 153.056 73.3943 152.858C73.5082 152.616 73.4934 152.841 73.4501 152.466C72.7544 152.234 71.1569 152.504 70.2528 152.36L70.2505 129.705C70.2505 129.362 70.1127 127.953 70.4065 127.867C70.4247 127.863 70.4566 127.848 70.4794 127.842L70.7265 127.801C70.8358 127.792 71.0806 127.8 71.2013 127.801C71.4859 127.804 71.7706 127.806 72.0553 127.806Z" fill="#EFA359"/>
<path fill-rule="evenodd" clip-rule="evenodd" d="M191.046 83.3682L191.061 71.9902L177.25 72.0085V85.3846L191.046 83.3682Z" fill="white"/>
<path fill-rule="evenodd" clip-rule="evenodd" d="M177.246 69.7735L191.068 69.8088C191.02 68.0216 191.268 59.3747 190.974 58.4639L177.242 56.5137L177.246 69.7735Z" fill="white"/>
<path fill-rule="evenodd" clip-rule="evenodd" d="M206.194 81.1925L206.211 71.9883L193.346 72.0054L193.368 83.0516L206.194 81.1925Z" fill="white"/>
<path fill-rule="evenodd" clip-rule="evenodd" d="M193.341 69.7734L206.217 69.8088C206.177 68.3452 206.38 61.3488 206.15 60.6136L193.338 58.791L193.341 69.7734Z" fill="white"/>
<path fill-rule="evenodd" clip-rule="evenodd" d="M49.8398 195.783C49.6599 196.23 49.5802 195.865 49.5779 195.862C49.3229 195.16 47.6251 190.814 47.3393 190.5L46.3282 190.497C46.2189 190.996 46.2212 196.867 46.3362 197.34L47.0262 197.313L47.033 191.785C47.4999 192.3 49.0348 196.877 49.4914 197.354C49.9901 197.342 49.8922 197.32 50.0596 196.873L50.975 194.663C51.3724 193.676 51.7755 192.73 52.1455 191.769C52.1603 191.79 52.174 191.821 52.1797 191.839C52.1865 191.858 52.2036 191.89 52.2104 191.912C52.3687 192.442 52.1581 196.407 52.2958 197.344L53.028 197.332L52.987 190.49L51.9406 190.514C51.6707 190.853 49.8443 195.413 49.8398 195.783Z" fill="white"/>
<path fill-rule="evenodd" clip-rule="evenodd" d="M146.257 191.191L148.964 191.189L148.966 196.64L145.373 196.653C145.66 195.756 145.999 195.386 146.133 194.226C146.255 193.18 146.243 192.242 146.257 191.191ZM144.502 197.344L149.784 197.369L149.787 198.998L150.517 198.944L150.483 196.67L149.719 196.612L149.668 190.488L145.556 190.5C145.343 191.424 145.57 193.098 145.352 194.262C145.248 194.823 145.115 195.306 144.893 195.79C143.989 197.766 143.519 195.174 143.771 198.966L144.487 198.978L144.502 197.344Z" fill="white"/>
<path fill-rule="evenodd" clip-rule="evenodd" d="M26.96 191.192L29.6677 191.189L29.6688 196.64L26.0935 196.653C26.3701 195.781 26.7277 195.401 26.8586 194.231C26.977 193.162 26.9417 192.267 26.96 191.192ZM30.4749 196.665C30.3952 196.492 30.4613 196.863 30.3975 196.431L30.3861 190.545C29.2942 190.574 27.1592 190.425 26.2198 190.619C26.1185 191.888 26.3189 193.077 26.057 194.373C25.9477 194.917 25.8133 195.449 25.5879 195.879C25.5332 195.983 25.2702 196.42 25.2247 196.465C24.8933 196.805 24.9878 196.55 24.5039 196.712L24.5244 198.985L25.1894 198.978L25.2008 197.344L30.4852 197.37L30.4897 198.997L31.2196 198.944L31.1855 196.661L30.4749 196.665Z" fill="white"/>
<path fill-rule="evenodd" clip-rule="evenodd" d="M74.1658 191.236L76.8746 191.182L76.8781 196.629L73.2868 196.651C73.5862 195.787 73.8891 195.371 74.0292 194.249C74.1635 193.163 74.126 192.318 74.1658 191.236ZM73.3585 193.089C73.3676 193.854 73.223 194.696 72.9816 195.364C72.4055 196.958 72.1743 196.536 71.6562 196.711L71.6699 198.991L72.4032 198.952L72.4043 197.343L77.6717 197.345L77.6831 198.964L78.4073 198.976L78.3549 196.654L77.6467 196.627L77.6353 190.591L73.4826 190.562C73.4872 190.994 73.5931 192.908 73.3585 193.089Z" fill="white"/>
<path fill-rule="evenodd" clip-rule="evenodd" d="M199.75 190.524C199.596 191.518 199.717 193.609 199.717 194.721C199.715 197.007 199.44 197.416 200.243 197.359C200.683 197.328 200.653 197.246 200.851 196.932C201.156 196.446 203.901 192.053 204.257 191.778C204.308 192.812 204.261 193.959 204.261 195.006C204.262 197.602 204.042 197.368 204.959 197.335C205.069 196.862 205.07 190.943 204.959 190.495C203.814 190.462 204.075 190.666 203.505 191.532C203.177 192.031 202.84 192.527 202.521 193.009C202.159 193.557 200.892 195.688 200.521 195.961C200.451 194.958 200.506 193.757 200.506 192.732C200.508 190.321 200.721 190.347 199.75 190.524Z" fill="white"/>
<path fill-rule="evenodd" clip-rule="evenodd" d="M116.585 194.344C116.21 190.219 121.592 189.89 122.037 193.497C122.246 195.194 121.191 196.595 119.759 196.793C118.035 197.031 116.723 195.851 116.585 194.344ZM115.772 194.533C116.398 198.871 123.372 198.4 122.847 193.418C122.646 191.514 120.944 190.044 118.734 190.359C116.867 190.627 115.45 192.295 115.772 194.533Z" fill="white"/>
<path fill-rule="evenodd" clip-rule="evenodd" d="M35.7499 194.343C35.3081 190.249 40.8407 189.879 41.2028 193.49C41.6127 197.577 36.1393 197.949 35.7499 194.343ZM34.9517 194.532C35.5677 198.892 42.5089 198.437 42.0135 193.406C41.5683 188.899 34.2343 189.456 34.9517 194.532Z" fill="white"/>
<path fill-rule="evenodd" clip-rule="evenodd" d="M154.578 197.317C155.642 197.445 155.544 197.089 156.048 196.345C156.517 195.652 158.811 191.945 159.059 191.805L159.098 197.343L159.828 197.33L159.78 190.506C159.299 190.463 159.068 190.408 158.811 190.767C158.184 191.639 155.63 195.855 155.288 196.032L155.239 190.501C154.268 190.429 154.551 190.689 154.556 191.69C154.562 193.072 154.475 196.358 154.578 197.317Z" fill="white"/>
<path fill-rule="evenodd" clip-rule="evenodd" d="M95.6969 191.213C95.8187 191.407 95.7413 191.036 95.8005 191.498L95.7242 193.776C95.2778 193.889 94.6209 193.862 94.2622 193.689C93.2932 193.671 92.5201 192.758 93.0848 191.795C93.5095 191.072 94.8156 191.116 95.6969 191.213ZM96.5144 190.517C96.0567 190.445 94.5594 190.461 94.0743 190.518C93.2784 190.61 92.7683 190.901 92.4449 191.346C92.0965 191.826 92.0384 192.702 92.3117 193.306C92.6111 193.968 93.0154 194.06 93.7202 194.336C93.5016 195.138 92.1318 196.661 92.043 197.344C93.1406 197.364 92.8024 197.471 93.7988 195.828C94.7928 194.189 94.3703 194.4 95.7538 194.408C95.7606 194.77 95.7174 197.022 95.7663 197.163C95.854 197.415 96.4689 197.528 96.5486 197.089C96.6419 196.579 96.5486 190.763 96.5144 190.517Z" fill="white"/>
<path fill-rule="evenodd" clip-rule="evenodd" d="M182.448 193.243C182.429 194.062 182.37 194.871 182.139 195.637C181.806 196.736 181.488 196.579 180.48 196.699L180.41 197.34C183.631 197.95 183.15 193.654 183.24 191.193L185.838 191.228C185.856 192.493 185.671 196.397 185.895 197.337H186.64L186.636 190.595L182.554 190.547L182.555 192.543C182.555 192.622 182.562 192.866 182.554 192.927L182.448 193.243Z" fill="white"/>
<path fill-rule="evenodd" clip-rule="evenodd" d="M127.833 194.144C129.102 194.02 130.956 193.997 130.876 195.479C130.803 196.846 129.058 196.74 127.826 196.704L127.833 194.144ZM129.765 197.236C131.161 197.339 132.114 195.817 131.471 194.486C130.882 193.268 129.242 193.522 127.823 193.413L127.841 191.21C128.422 191.137 129.289 191.187 129.905 191.187C130.652 191.188 131.492 191.442 131.139 190.553C130.681 190.354 127.839 190.439 127.164 190.508L127.156 197.261C128.011 197.309 128.942 197.276 129.765 197.236Z" fill="white"/>
<path fill-rule="evenodd" clip-rule="evenodd" d="M58.6892 194.856C58.7757 194.401 59.8882 191.697 60.133 191.526L61.4697 194.843L58.6892 194.856ZM56.8457 197.331C57.76 197.398 57.6154 197.39 57.9103 196.673C58.5241 195.18 57.8739 195.531 61.8136 195.584C62.0493 196.14 62.2668 196.932 62.6004 197.341L63.32 197.338C63.3007 196.972 60.6841 190.842 60.4085 190.494L59.7788 190.495C59.5056 190.923 56.8776 196.988 56.8457 197.331Z" fill="white"/>
<path fill-rule="evenodd" clip-rule="evenodd" d="M87.1023 191.202C87.1136 191.223 87.1353 191.229 87.1387 191.265L87.2002 191.498C87.2719 192.22 87.1216 196.047 87.2082 197.272L87.8606 197.269L87.8617 190.548C86.837 190.545 84.6804 190.437 83.782 190.608C83.7 191.894 83.856 193.216 83.6749 194.512C83.4689 195.983 83.3163 196.689 81.7859 196.672L81.7324 197.349C84.9297 197.855 84.48 193.768 84.5232 191.188L87.1023 191.202Z" fill="white"/>
<path fill-rule="evenodd" clip-rule="evenodd" d="M173.523 196.614L173.524 194.124L176.778 194.114L176.744 193.427L173.52 193.428L173.524 191.19C174.259 191.181 174.995 191.186 175.73 191.186C176.481 191.186 177.315 191.443 176.964 190.551C176.536 190.365 173.597 190.465 172.889 190.498C172.608 191.027 172.748 196.287 172.783 197.278L177.061 197.281L177.056 196.716C176.457 196.703 175.856 196.712 175.256 196.712C174.508 196.713 173.848 196.798 173.523 196.614Z" fill="white"/>
<path fill-rule="evenodd" clip-rule="evenodd" d="M195.574 197.187L195.548 196.652L191.979 196.657L191.989 194.122L195.227 194.118L195.194 193.426L191.979 193.435L191.997 191.193C192.771 191.172 194.903 191.335 195.469 191.128L195.479 190.648C194.988 190.408 191.991 190.515 191.254 190.554L191.256 197.273C192.037 197.295 195.051 197.43 195.574 197.187Z" fill="white"/>
<path fill-rule="evenodd" clip-rule="evenodd" d="M106.434 197.318C107.326 197.465 107.162 197.267 107.152 196.431L107.163 191.187L110.776 191.204L110.812 197.347L111.44 197.321L111.438 190.549L106.436 190.565L106.434 197.318Z" fill="white"/>
<path fill-rule="evenodd" clip-rule="evenodd" d="M136.733 196.595L136.734 194.124L140.044 194.115L140.01 193.428L136.725 193.413L136.742 191.189L140.237 191.182L140.197 190.488L136.063 190.508L136.053 197.264L140.314 197.273L140.323 196.727L137.574 196.72C136.879 196.717 136.931 196.785 136.733 196.595Z" fill="white"/>
<path fill-rule="evenodd" clip-rule="evenodd" d="M165.916 191.19L165.938 197.33L166.627 197.332L166.656 191.188L168.903 191.177L168.875 190.491H164.179C163.892 190.491 163.793 190.414 163.668 190.616C163.592 190.74 163.632 191.048 163.701 191.117C163.846 191.264 165.575 191.188 165.916 191.19Z" fill="white"/>
<path fill-rule="evenodd" clip-rule="evenodd" d="M54.3946 87.708L54.3547 72.9345H70.4403L70.4574 89.2389C70.6248 88.955 70.5462 87.577 70.5462 87.2419C70.5462 85.2163 70.6396 73.6184 70.503 72.8752C69.8312 72.7533 54.9127 72.7601 54.3001 72.8821C54.1589 73.5409 54.2488 84.1996 54.25 86.0097C54.25 86.5887 54.1395 87.5656 54.3946 87.708Z" fill="white"/>
<path fill-rule="evenodd" clip-rule="evenodd" d="M34.6892 85.8217L34.6527 72.9346L51.4284 72.9072L51.3931 87.4573C51.5718 87.1872 51.5172 86.9455 51.5126 86.5785C51.4887 84.3433 51.6105 73.6595 51.4694 72.8764C50.8533 72.7408 35.3177 72.7408 34.6061 72.8821C34.4159 73.7735 34.5833 82.662 34.5525 85.1594C34.5423 85.9698 34.581 85.7498 34.6892 85.8217Z" fill="white"/>
<path fill-rule="evenodd" clip-rule="evenodd" d="M54.444 55.7153C54.2345 55.8339 54.3222 55.5626 54.2481 56.0516C54.2425 56.0835 54.2527 56.4665 54.2527 56.5315C54.2812 58.8636 54.1559 69.813 54.2971 70.6553L70.5023 70.6154C70.6435 69.8871 70.6355 54.3213 70.4932 53.634C70.1834 53.585 70.1208 53.5656 69.9193 53.7354L70.4362 53.683L70.4499 70.571L54.3654 70.5596C54.2937 68.11 54.3654 65.5363 54.3654 63.0719C54.3654 61.9549 54.198 56.3058 54.444 55.7153Z" fill="white"/>
<path fill-rule="evenodd" clip-rule="evenodd" d="M191.046 83.3681C191.181 83.2062 191.095 83.5653 191.171 83.0751L191.168 81.9342C191.17 79.9474 191.279 72.7732 191.125 71.9274C190.339 71.7861 180.156 71.9069 178.002 71.8807C177.69 71.8773 177.388 71.8032 177.25 72.0084L191.061 71.9901L191.046 83.3681Z" fill="#665A3D"/>
<path fill-rule="evenodd" clip-rule="evenodd" d="M206.194 81.1891C206.333 81.0239 206.27 81.2199 206.322 80.8917L206.317 80.036C206.316 78.394 206.413 72.6774 206.275 71.9276C205.596 71.8034 197.83 71.8809 196.466 71.8809C196.133 71.8809 193.527 71.7407 193.346 72.0051L206.211 71.988L206.194 81.1891Z" fill="white"/>
<path fill-rule="evenodd" clip-rule="evenodd" d="M177.246 69.7724C177.458 69.9822 177.383 69.9001 178.098 69.8933C180.201 69.8728 190.396 69.9856 191.124 69.8557C191.281 69.0338 191.163 62.8798 191.163 61.1757C191.163 60.5443 191.306 58.5746 190.975 58.4629C191.268 59.3736 191.02 68.0205 191.068 69.8078L177.246 69.7724Z" fill="white"/>
<path fill-rule="evenodd" clip-rule="evenodd" d="M193.342 69.77C193.491 69.917 193.277 69.8737 193.713 69.9033C194.942 69.9888 206.067 69.8896 206.272 69.8532C206.407 69.1569 206.31 63.2796 206.311 61.6502C206.311 61.2776 206.424 60.7603 206.15 60.6133C206.38 61.3482 206.178 68.3422 206.218 69.8053L193.342 69.77Z" fill="#5C513C"/>
<path fill-rule="evenodd" clip-rule="evenodd" d="M202.509 189.309C201.785 189.414 201.641 188.96 201.43 188.561C200.791 188.605 200.82 188.834 201.158 189.36C201.709 190.217 203.811 190.166 203.767 188.589C202.869 188.525 203.374 189.185 202.509 189.309Z" fill="white"/>
<path fill-rule="evenodd" clip-rule="evenodd" d="M106.432 197.318L106.435 190.564L111.437 190.548L111.439 197.32C111.503 197.197 111.462 197.443 111.53 197.092L111.539 196.428C111.529 195.125 111.619 191.159 111.489 190.457L106.373 190.506C106.231 191.276 106.329 193.083 106.329 193.964C106.329 194.645 106.205 196.908 106.432 197.318Z" fill="white"/>
<path fill-rule="evenodd" clip-rule="evenodd" d="M87.1035 191.201L87.1456 197.361L87.9176 197.331C88.0155 196.815 88.0155 190.97 87.9119 190.502C87.428 190.398 85.4957 190.46 84.7419 190.458C84.5951 190.458 84.2933 190.437 84.1681 190.449C83.7525 190.485 83.9141 190.407 83.7832 190.607C84.6816 190.436 86.8382 190.545 87.863 190.547L87.8618 197.268L87.2094 197.271C87.1228 196.046 87.2731 192.22 87.2014 191.497L87.1399 191.265C87.1365 191.228 87.1149 191.223 87.1035 191.201Z" fill="white"/>
<path fill-rule="evenodd" clip-rule="evenodd" d="M136.732 196.595C136.93 196.785 136.879 196.717 137.574 196.72L140.322 196.727L140.313 197.273L136.052 197.264L136.063 190.508C136.006 190.617 136.035 190.398 135.973 190.741C135.867 191.317 135.989 197.293 135.999 197.372L140.396 197.332L140.37 196.624L136.732 196.595Z" fill="white"/>
<path fill-rule="evenodd" clip-rule="evenodd" d="M173.525 196.615C173.849 196.8 174.51 196.715 175.258 196.713C175.858 196.713 176.459 196.704 177.058 196.718L177.063 197.283L172.785 197.28C172.749 196.288 172.609 191.029 172.891 190.5C172.708 190.596 172.685 190.277 172.697 191.311C172.7 191.595 172.698 191.881 172.698 192.165C172.699 192.733 172.699 193.302 172.699 193.871C172.698 194.831 172.606 196.461 172.733 197.377L177.138 197.334L177.11 196.619L173.525 196.615Z" fill="white"/>
<path fill-rule="evenodd" clip-rule="evenodd" d="M195.574 197.187C195.051 197.43 192.037 197.294 191.256 197.272L191.254 190.553C191.99 190.514 194.987 190.407 195.479 190.648C195.352 190.402 195.566 190.469 195.053 190.441L191.16 190.504L191.207 197.333C191.792 197.441 192.802 197.38 193.436 197.381C194.09 197.381 195.481 197.52 195.574 197.187Z" fill="white"/>
<path fill-rule="evenodd" clip-rule="evenodd" d="M129.765 197.236C128.942 197.276 128.012 197.309 127.157 197.261L127.165 190.508C126.933 190.953 127.072 197.147 127.098 197.339C127.486 197.387 129.644 197.486 129.765 197.236Z" fill="white"/>
<path fill-rule="evenodd" clip-rule="evenodd" d="M30.4739 196.665L30.442 190.503C29.8897 190.385 28.9185 190.463 28.3127 190.462C27.9335 190.462 27.5544 190.464 27.1763 190.463C27.034 190.462 26.7198 190.441 26.6013 190.452C26.1618 190.492 26.3451 190.41 26.2188 190.619C27.1581 190.425 29.2931 190.574 30.385 190.545L30.3964 196.431C30.4602 196.863 30.3942 196.492 30.4739 196.665Z" fill="#5D5233"/>
<path fill-rule="evenodd" clip-rule="evenodd" d="M182.447 193.242L182.553 192.927C182.561 192.865 182.554 192.621 182.554 192.543L182.553 190.546L186.635 190.594C186.404 190.37 186.049 190.452 185.577 190.454C184.824 190.46 182.988 190.407 182.463 190.504L182.447 193.242Z" fill="white"/>
<path fill-rule="evenodd" clip-rule="evenodd" d="M73.3594 193.089C73.5939 192.907 73.488 190.994 73.4835 190.562L77.6361 190.591C77.4835 190.415 77.693 190.535 77.4448 190.464C77.4425 190.463 77.1898 190.448 77.175 190.447L73.3958 190.504L73.3594 193.089Z" fill="white"/>
<path fill-rule="evenodd" clip-rule="evenodd" d="M94.2637 193.689C94.6223 193.862 95.2793 193.889 95.7257 193.776L95.802 191.498C95.7428 191.036 95.8202 191.407 95.6984 191.213L95.7018 193.707L94.2637 193.689Z" fill="#776A55"/>
<path fill-rule="evenodd" clip-rule="evenodd" d="M38.1561 144.395C38.073 144.444 37.9842 144.522 37.9705 144.497C37.9557 144.472 37.9045 144.513 37.8669 144.536L37.6289 144.322C37.7724 144.654 37.7223 144.596 37.9944 144.704L38.1561 144.395Z" fill="#E7B888"/>
<path fill-rule="evenodd" clip-rule="evenodd" d="M231.132 72.6339L230.971 72.6886C231.095 72.822 230.763 72.8744 231.123 72.8071C231.446 72.4129 231.145 72.651 231.132 72.6339Z" fill="#8E846F"/>
<path fill-rule="evenodd" clip-rule="evenodd" d="M0.277189 72.0343L0.240752 71.9922C0.0153008 72.1449 0.10867 71.966 0.0175781 72.2782C0.271495 72.1791 0.157631 72.2508 0.277189 72.0343Z" fill="#504732"/>
<path fill-rule="evenodd" clip-rule="evenodd" d="M49.5781 195.864C49.5804 195.867 49.6601 196.232 49.84 195.785L49.5781 195.864Z" fill="#675A46"/>
</g>
<defs>
<clipPath id="clip0_106_4866">
<rect width="232" height="199" fill="white"/>
</clipPath>
</defs>
</svg>
