<svg width="237" height="45" viewBox="0 0 237 45" fill="none" xmlns="http://www.w3.org/2000/svg">
<path d="M43.5 1.5V43.5H1.5V1.5H43.5ZM45 0H0V45H45V0Z" fill="white"/>
<path d="M43.5 1.5V43.5H1.5V1.5H43.5ZM45 0H0V45H45V0Z" fill="white"/>
<path d="M35.8237 16.7033C35.8237 16.7033 35.5583 14.7038 34.7438 13.8233C33.7087 12.6698 32.5508 12.6623 32.0198 12.5963C28.2143 12.3008 22.5067 12.3008 22.5067 12.3008H22.4933C22.4933 12.3008 16.7858 12.3008 12.9818 12.5963C12.4508 12.6623 11.2928 12.6683 10.2578 13.8233C9.44325 14.7038 9.17775 16.7033 9.17775 16.7033C9.17775 16.7033 8.90625 19.0493 8.90625 21.3968V23.5958C8.90625 25.9448 9.17775 28.2908 9.17775 28.2908C9.17775 28.2908 9.44325 30.2903 10.2578 31.1693C11.2928 32.3228 12.6503 32.2883 13.2563 32.4098C15.4313 32.6318 22.5007 32.7008 22.5007 32.7008C22.5007 32.7008 28.2143 32.6903 32.0198 32.3993C32.5508 32.3318 33.7087 32.3243 34.7438 31.1708C35.5583 30.2918 35.8237 28.2923 35.8237 28.2923C35.8237 28.2923 36.0952 25.9448 36.0952 23.5973V21.3983C36.0952 19.0493 35.8237 16.7033 35.8237 16.7033ZM19.1048 27.6008V17.4008L27.6038 22.5008L19.1048 27.6008Z" fill="white"/>
<path d="M100.469 14.9977C100.673 14.3196 100.469 13.8223 99.5033 13.8223H96.3052C95.4914 13.8223 95.1196 14.2525 94.9154 14.725C94.9154 14.725 93.2894 18.6902 90.9852 21.2612C90.2414 22.0093 89.9016 22.2456 89.4962 22.2456C89.2935 22.2456 88.9989 22.0093 88.9989 21.3312V14.9977C88.9989 14.1839 88.7641 13.8223 88.086 13.8223H83.0606C82.5531 13.8223 82.2468 14.1985 82.2468 14.5573C82.2468 15.3273 83.3989 15.5052 83.5171 17.6752V22.3827C83.5171 23.4137 83.3319 23.6018 82.9235 23.6018C81.84 23.6018 79.2033 19.6221 77.6385 15.0662C77.3337 14.181 77.026 13.8237 76.2093 13.8237H73.0127C72.0983 13.8237 71.916 14.2539 71.916 14.7264C71.916 15.5752 72.9996 19.7752 76.9633 25.33C79.6058 29.1231 83.326 31.1793 86.7152 31.1793C88.7466 31.1793 88.9975 30.7229 88.9975 29.9354V27.0683C88.9975 26.1554 89.1914 25.9716 89.8346 25.9716C90.3071 25.9716 91.1208 26.2108 93.0181 28.0381C95.1852 30.2052 95.5439 31.1779 96.7616 31.1779H99.9583C100.871 31.1779 101.328 30.7214 101.065 29.8202C100.778 28.9233 99.7425 27.6181 98.3687 26.0737C97.6221 25.1929 96.5064 24.245 96.1666 23.771C95.6927 23.16 95.8298 22.8902 96.1666 22.3477C96.1681 22.3491 100.063 16.8629 100.469 14.9977Z" fill="white"/>
<path d="M64.75 0.75H108.25V44.25H64.75V0.75Z" stroke="white" stroke-width="1.5"/>
<path d="M170.188 2.8125V42.1875H130.812V2.8125H170.188ZM171.594 1.40625H129.406V43.5938H171.594V1.40625Z" fill="white"/>
<path d="M170.188 2.8125V42.1875H130.812V2.8125H170.188ZM171.594 1.40625H129.406V43.5938H171.594V1.40625Z" fill="white"/>
<path d="M161.57 31.6744V23.4872C161.57 19.1011 159.228 17.0592 156.106 17.0592C153.586 17.0592 152.459 18.4458 151.829 19.4175V17.3953H147.082C147.146 18.7355 147.082 31.6744 147.082 31.6744H151.829V23.6995C151.829 23.2734 151.86 22.8473 151.985 22.5422C152.328 21.69 153.108 20.8069 154.419 20.8069C156.137 20.8069 156.824 22.1161 156.824 24.0356V31.6758L161.57 31.6744ZM142.083 15.4463C143.738 15.4463 144.769 14.3494 144.769 12.9783C144.738 11.5777 143.738 10.5117 142.116 10.5117C140.493 10.5117 139.43 11.5777 139.43 12.9783C139.43 14.3494 140.46 15.4463 142.054 15.4463H142.083ZM144.456 31.6744V17.3953H139.71V31.6744H144.456Z" fill="#EFA359"/>
<path d="M234.188 2.8125V42.1875H194.812V2.8125H234.188ZM235.594 1.40625H193.406V43.5938H235.594V1.40625Z" fill="white"/>
<path d="M234.188 2.8125V42.1875H194.812V2.8125H234.188ZM235.594 1.40625H193.406V43.5938H235.594V1.40625Z" fill="white"/>
<path d="M214.732 9.68555V15.679H220.726V19.4252H214.732V25.4187C214.732 26.8109 214.864 27.9288 215.012 28.324C215.16 28.7177 215.433 29.0327 215.835 29.2704C216.368 29.5896 216.974 29.7499 217.659 29.7499C218.875 29.7499 220.288 29.3365 221.475 28.4154V32.1616C220.477 32.786 219.331 33.1741 218.498 33.3682C217.667 33.5609 216.767 33.6593 215.8 33.6593C214.789 33.6593 213.813 33.5482 212.889 33.243C212.045 32.966 211.574 32.658 210.976 32.1476C210.381 31.6343 210.092 31.1182 209.861 30.5388C209.63 29.9623 209.487 28.7641 209.487 27.6659V19.4252H206.49V15.679C207.449 15.6087 208.244 15.3387 208.913 14.7677C209.588 14.194 210.128 13.5063 210.533 12.7048C210.941 11.9018 210.986 10.9188 210.986 9.68555H214.732Z" fill="white"/>
</svg>
